<svg xmlns="http://www.w3.org/2000/svg" width="1000" height="444" viewBox="0 0 1000 444" role="img" aria-labelledby="title desc">
  <title id="title">VOL-İ Takımı Görev Dağılımı</title>
  <desc id="desc">Danışman öğretmen tarafından verilen kişi ve görev tablosu.</desc>
  <rect x="0" y="0" width="1000" height="444" fill="#ffffff"/>
  <rect x="0.5" y="0.5" width="999" height="443" fill="none" stroke="#000000" stroke-width="1"/>
  <line x1="324" y1="0" x2="324" y2="444" stroke="#000000" stroke-width="1"/>
  <g stroke="#000000" stroke-width="1">
    <line x1="0" y1="37" x2="1000" y2="37"/>
    <line x1="0" y1="74" x2="1000" y2="74"/>
    <line x1="0" y1="111" x2="1000" y2="111"/>
    <line x1="0" y1="148" x2="1000" y2="148"/>
    <line x1="0" y1="185" x2="1000" y2="185"/>
    <line x1="0" y1="222" x2="1000" y2="222"/>
    <line x1="0" y1="259" x2="1000" y2="259"/>
    <line x1="0" y1="296" x2="1000" y2="296"/>
    <line x1="0" y1="333" x2="1000" y2="333"/>
    <line x1="0" y1="370" x2="1000" y2="370"/>
    <line x1="0" y1="407" x2="1000" y2="407"/>
  </g>
  <g fill="#000000" font-family="Arial, Helvetica, sans-serif" font-size="23">
    <text x="162" y="25" text-anchor="middle" font-weight="700">KİŞİLER</text>
    <text x="662" y="25" text-anchor="middle" font-weight="700">GÖREV ADI</text>
  </g>
  <g fill="#000000" font-family="Arial, Helvetica, sans-serif" font-size="22">
    <text x="162" y="63" text-anchor="middle">Ayşenur Ünal</text>
    <text x="662" y="63" text-anchor="middle">ALGORİTMALAR, YAZILIM</text>
    <text x="162" y="100" text-anchor="middle">Yusuf Erdem Yazğan</text>
    <text x="662" y="100" text-anchor="middle">TAKIM TANITIMI, ELEKTRONİK, ALGORİTMALAR, YAZILIM</text>
    <text x="162" y="137" text-anchor="middle">Berra Nisa Şahin</text>
    <text x="662" y="137" text-anchor="middle">ROBOT ÜST YAPI</text>
    <text x="162" y="174" text-anchor="middle">Beyzanur Can</text>
    <text x="662" y="174" text-anchor="middle">ROBOT ÜST YAPI</text>
    <text x="162" y="211" text-anchor="middle">Ebrar Ölçekçioğlu</text>
    <text x="662" y="211" text-anchor="middle">MEKANİK</text>
    <text x="162" y="248" text-anchor="middle">Eymen Asaf Aral</text>
    <text x="662" y="248" text-anchor="middle">ELEKTRONİK</text>
    <text x="162" y="285" text-anchor="middle">Furkan Dönmez</text>
    <text x="662" y="285" text-anchor="middle">MEKANİK</text>
    <text x="162" y="322" text-anchor="middle">Talha Aydın</text>
    <text x="662" y="322" text-anchor="middle">ARAÇ TASARIMI, ELEKTRONİK</text>
    <text x="162" y="359" text-anchor="middle">Muhammed Osman Temiz</text>
    <text x="662" y="359" text-anchor="middle">MEKANİK</text>
    <text x="162" y="396" text-anchor="middle">Nurgül Solmaz Dal</text>
    <text x="662" y="396" text-anchor="middle">ROBOT ÜST YAPI</text>
    <text x="162" y="433" text-anchor="middle">Mert Savar</text>
    <text x="662" y="433" text-anchor="middle">ARAÇ TASARIMI, ELEKTRONİK, ALGORİTMALAR</text>
  </g>
</svg>
